<?xml version="1.0" standalone="no"?>
<!DOCTYPE svg PUBLIC "-//W3C//DTD SVG 20010904//EN"
 "http://www.w3.org/TR/2001/REC-SVG-20010904/DTD/svg10.dtd">
<svg version="1.0" xmlns="http://www.w3.org/2000/svg"
 width="300.000000pt" height="300.000000pt" viewBox="0 0 300.000000 300.000000"
 preserveAspectRatio="xMidYMid meet">
<metadata>
Created by potrace 1.10, written by Peter Selinger 2001-2011
</metadata>
<g transform="translate(0.000000,300.000000) scale(0.100000,-0.100000)"
fill="#000000" stroke="none">
<path d="M1062 2133 c-29 -12 -33 -42 -11 -81 l23 -39 -68 -239 c-143 -507
-133 -481 -183 -515 -73 -50 -52 -93 45 -91 42 1 53 -1 40 -9 -10 -5 -25 -36
-34 -67 -8 -31 -18 -65 -20 -74 -4 -14 1 -18 20 -18 14 0 26 5 26 10 0 13 33
13 46 0 5 -5 19 -7 31 -4 l21 6 -24 71 c-13 39 -24 74 -24 79 0 4 93 9 206 10
l206 3 17 67 17 68 -38 -5 c-21 -3 -56 -7 -78 -10 -22 -3 -40 -3 -40 0 0 3 19
72 42 152 l42 145 50 -5 c28 -2 57 -6 65 -8 9 -3 17 14 27 59 7 35 16 72 19
83 6 19 3 19 -61 13 -60 -6 -67 -5 -61 10 4 9 20 65 37 124 17 59 33 115 36
125 4 13 16 17 50 17 l45 0 -53 65 -52 65 -175 -1 c-97 0 -182 -3 -189 -6z
m347 -43 c31 -16 33 -40 8 -70 -21 -24 -87 -230 -87 -269 0 -21 48 -61 75 -61
17 0 25 -5 25 -17 0 -31 -13 -40 -64 -45 -28 -4 -56 -14 -66 -24 -21 -21 -90
-241 -90 -285 0 -36 41 -69 87 -69 30 0 34 -3 31 -22 -3 -22 -9 -23 -123 -30
-66 -4 -127 -7 -135 -8 -8 -1 -36 2 -61 6 -26 3 -54 2 -64 -4 -13 -7 -29 -5
-54 5 -20 8 -38 17 -40 18 -1 2 12 22 29 44 28 35 46 88 126 370 97 343 102
365 90 418 -4 18 -5 37 -1 43 8 13 290 13 314 0z"/>
<path d="M1530 2065 l51 -64 -45 -208 c-25 -114 -65 -297 -89 -405 l-44 -198
71 -2 c67 -1 159 2 163 6 1 1 17 71 36 156 33 150 34 156 19 208 l-15 53 34
32 c32 29 37 43 63 170 l29 137 95 0 94 0 -7 -37 c-3 -21 -16 -78 -28 -127
l-22 -89 -98 -50 -99 -49 7 -35 c14 -76 57 -209 72 -223 12 -12 14 -12 8 -1
-6 11 -4 13 9 8 50 -20 68 -18 122 8 65 32 75 27 79 -40 2 -32 10 -53 24 -66
12 -11 21 -24 21 -29 0 -4 3 -15 6 -23 4 -13 0 -14 -28 -7 -18 4 -42 11 -53
15 -11 4 -7 -2 10 -14 17 -12 36 -19 42 -16 7 2 31 -10 54 -28 38 -29 66 -69
86 -122 6 -16 8 -14 11 15 6 59 -14 105 -68 153 -47 42 -51 50 -72 137 -22 91
-22 92 -3 106 67 48 109 114 90 144 -3 5 17 113 45 240 27 126 50 240 50 253
0 13 -8 31 -18 40 -17 15 -58 17 -386 17 l-368 0 52 -65z m677 15 c13 -20 5
-70 -43 -275 -8 -38 -18 -83 -21 -100 -8 -51 -49 -128 -87 -164 -20 -19 -36
-41 -36 -48 0 -7 -41 -34 -92 -58 -69 -34 -94 -42 -100 -33 -18 30 -5 44 73
82 44 21 78 40 76 42 -2 3 -38 -9 -80 -26 -41 -16 -80 -30 -86 -30 -10 0 -31
60 -31 88 0 21 21 37 96 75 38 19 74 44 81 55 12 21 53 199 53 234 0 45 -26
58 -115 58 -108 0 -115 -7 -150 -165 -24 -104 -32 -125 -62 -159 -28 -30 -34
-44 -29 -65 21 -93 16 -152 -30 -338 -7 -28 -47 -42 -114 -39 -68 3 -70 11
-42 135 12 47 30 133 42 191 12 58 40 182 61 276 22 95 36 180 32 190 -3 11
-15 31 -25 46 -10 14 -18 31 -18 37 0 8 94 11 318 11 304 0 318 -1 329 -20z
m-76 -518 c-6 -10 -28 -35 -51 -56 -24 -21 -43 -49 -47 -67 -5 -25 -17 -36
-72 -64 -66 -33 -67 -33 -91 -15 -14 10 -23 20 -20 22 3 2 44 22 93 45 48 24
87 49 87 55 0 7 16 24 36 37 19 13 39 33 45 43 5 10 14 18 20 18 6 0 6 -6 0
-18z"/>
<path d="M1888 1912 l-57 -3 -11 -57 c-6 -31 -18 -83 -26 -116 -8 -32 -13 -60
-10 -63 7 -8 91 35 110 56 14 15 62 182 54 185 -2 1 -29 0 -60 -2z m-2 -95
c-7 -44 -23 -70 -37 -61 -10 6 -4 41 13 86 15 40 31 23 24 -25z"/>
<path d="M1731 1458 c-1 -4 -13 -62 -27 -129 -14 -67 -23 -123 -21 -126 6 -5
66 24 88 43 14 12 13 23 -8 106 -24 96 -31 118 -32 106z"/>
<path d="M1800 1267 c0 -7 9 -20 20 -30 11 -9 20 -23 20 -31 0 -8 3 -21 6 -30
5 -13 -3 -16 -50 -16 l-56 0 0 -86 0 -87 46 7 c26 3 53 6 60 6 8 0 14 10 14
23 0 20 -4 23 -35 19 -21 -3 -35 0 -35 7 0 6 16 11 35 11 19 0 35 3 35 8 -1
20 -20 33 -43 30 -41 -5 -34 16 7 23 20 3 36 3 36 0 0 -3 4 -12 9 -19 6 -10
20 -8 64 12 l57 25 59 -44 c61 -45 111 -114 111 -154 0 -12 4 -19 10 -16 15 9
12 87 -4 126 -21 51 -116 131 -116 98 0 -7 -7 -8 -17 -4 -37 15 -94 15 -117 0
-32 -21 -58 -10 -50 21 9 33 -2 70 -28 94 -25 23 -38 26 -38 7z"/>
<path d="M1387 1163 c-4 -3 -7 -42 -7 -85 0 -77 0 -78 25 -78 18 0 25 5 25 20
0 28 14 25 35 -6 15 -24 18 -25 33 -11 12 13 13 19 3 31 -9 11 -10 20 -2 35
16 29 13 67 -5 85 -15 16 -94 23 -107 9z m78 -58 c0 -11 -8 -21 -17 -23 -14
-3 -18 3 -18 23 0 20 4 26 18 23 9 -2 17 -12 17 -23z"/>
<path d="M1548 1163 c-15 -4 -18 -17 -18 -84 0 -78 0 -79 25 -79 25 0 25 1 25
85 0 47 -3 84 -7 84 -5 -1 -16 -3 -25 -6z"/>
<path d="M1608 1163 c-15 -4 -18 -17 -18 -84 l0 -79 39 0 c49 0 87 29 95 75 7
34 -5 72 -28 87 -12 8 -60 9 -88 1z m67 -78 c0 -20 -6 -31 -17 -33 -15 -3 -18
4 -18 33 0 29 3 36 18 33 11 -2 17 -13 17 -33z"/>
<path d="M707 1153 c-4 -3 -7 -39 -7 -80 l0 -73 44 0 c68 0 123 54 80 78 -14
8 -14 12 -3 30 20 32 -3 52 -61 52 -25 0 -50 -3 -53 -7z m74 -98 c0 -5 -9 -11
-21 -13 -20 -3 -27 8 -13 22 10 9 34 3 34 -9z"/>
<path d="M1038 1153 c-28 -4 -28 -5 -28 -79 l0 -74 34 0 c48 0 65 8 81 41 39
75 -1 126 -87 112z m56 -55 c7 -12 6 -21 -3 -32 -21 -25 -41 -19 -41 12 0 45
22 54 44 20z"/>
<path d="M1168 1153 c-15 -4 -18 -16 -18 -79 0 -72 1 -74 25 -74 25 0 25 1 25
80 0 44 -3 79 -7 79 -5 -1 -16 -3 -25 -6z"/>
<path d="M1238 1153 c-15 -4 -18 -16 -19 -69 -1 -35 -2 -70 -3 -76 -1 -7 9
-14 21 -16 19 -3 22 2 25 39 l3 43 28 -42 c22 -34 31 -41 45 -33 14 7 16 21
14 85 -3 67 -6 76 -23 76 -15 0 -19 -7 -20 -37 0 -36 -1 -37 -14 -18 -30 43
-41 51 -57 48z"/>
</g>
</svg>
